<svg width="33" height="24" viewBox="0 0 33 24" fill="none" xmlns="http://www.w3.org/2000/svg">
<path d="M4.47283 0V9.2628C5.9128 7.58134 7.63891 6.73493 9.64074 6.73493C10.6718 6.73493 11.5951 6.92781 12.4234 7.31017C13.254 7.69026 13.8749 8.17813 14.2943 8.77039C14.716 9.36832 15.0009 10.023 15.155 10.7446C15.3079 11.4628 15.3844 12.5803 15.3844 14.0962V24H10.9104V15.0798C10.9104 13.3099 10.8293 12.1889 10.659 11.7124C10.4995 11.2456 10.183 10.8456 9.76122 10.5778C9.33027 10.293 8.7939 10.1523 8.14632 10.1523C7.4049 10.1523 6.73994 10.3339 6.16187 10.6947C5.57105 11.0577 5.14705 11.6001 4.87829 12.3251C4.60489 13.0512 4.46819 14.1234 4.47283 15.5428L4.46819 24H0V0H4.47399M22.0896 0V9.2628C23.5307 7.58134 25.2557 6.73493 27.2563 6.73493C28.2839 6.73493 29.2141 6.92781 30.0436 7.31017C30.8707 7.69026 31.4917 8.17813 31.9087 8.77039C32.3296 9.36435 32.6225 10.0361 32.7695 10.7446C32.9235 11.4628 33 12.5803 33 14.0962V24H28.5306V15.0798C28.5306 13.3099 28.4461 12.1889 28.2758 11.7124C28.1162 11.2449 27.7987 10.8447 27.3757 10.5778C26.9493 10.293 26.4083 10.1523 25.7608 10.1523C25.0205 10.1523 24.3555 10.3339 23.7763 10.6947C23.1936 11.0577 22.7673 11.6001 22.495 12.3251C22.2263 13.0512 22.0896 14.1234 22.0896 15.5428V24H17.6214V0H22.0896Z" fill="#A40000"/>
</svg>
