<svg width="31" height="24" viewBox="0 0 31 24" fill="none" xmlns="http://www.w3.org/2000/svg">
<g clip-path="url(#clip0_66_35)">
<path d="M2.11364 23.9999H7.04545V11.6363L0 6.18176V21.8181C0 23.0254 0.947614 23.9999 2.11364 23.9999Z" fill="#A40000"/>
<path d="M23.9545 23.9999H28.8864C30.0559 23.9999 31 23.0218 31 21.8181V6.18176L23.9545 11.6363" fill="#A40000"/>
<path d="M23.9545 2.18178V11.6363L31 6.18178V3.27269C31 0.574509 28.0162 -0.963673 25.9273 0.654509" fill="#A40000"/>
<path d="M7.04546 11.6363V2.18176L15.5 8.72722L23.9545 2.18176V11.6363L15.5 18.1818" fill="#A40000"/>
<path d="M0 3.27269V6.18178L7.04545 11.6363V2.18178L5.07273 0.654509C2.98023 -0.963673 0 0.574509 0 3.27269Z" fill="#A40000"/>
</g>
<defs>
<clipPath id="clip0_66_35">
<rect width="31" height="24" fill="white"/>
</clipPath>
</defs>
</svg>
