<svg width="29" height="24" viewBox="0 0 29 24" fill="none" xmlns="http://www.w3.org/2000/svg">
<path d="M2.62541 10.1816C11.2659 6.38039 22.4474 1.74596 23.9908 1.10452C28.0395 -0.574356 29.2818 -0.252606 28.6624 3.46539C28.2176 6.13771 26.934 14.9851 25.911 20.492C25.304 23.7576 23.942 24.1447 21.8005 22.7319C20.7706 22.052 15.5724 18.6145 14.4442 17.8073C13.4143 17.0717 11.994 16.1869 13.7753 14.4441C14.4092 13.8233 18.5644 9.85571 21.8018 6.76746C22.226 6.36183 21.6932 5.69564 21.2037 6.02083C16.8402 8.91452 10.7902 12.9309 10.0202 13.4541C8.85691 14.244 7.73972 14.6063 5.73429 14.0302C4.21904 13.595 2.73885 13.076 2.16272 12.878C-0.0558397 12.1162 0.470785 11.1296 2.62541 10.1816Z" fill="#A40000"/>
</svg>
